<?xml version="1.0" encoding="UTF-8" standalone="no"?>
<svg
   version="2.0"
   width="143.11548pt"
   height="286.15958pt"
   viewBox="0 0 143.11548 286.15958"
   preserveAspectRatio="xMidYMid meet"
   id="svg8"
   sodipodi:docname="8d3d67ad957cc0bf5d530fdc69357cdd.svg"
   xmlns:inkscape="http://www.inkscape.org/namespaces/inkscape"
   xmlns:sodipodi="http://sodipodi.sourceforge.net/DTD/sodipodi-0.dtd"
   xmlns="http://www.w3.org/2000/svg"
   xmlns:svg="http://www.w3.org/2000/svg">
  <defs
     id="defs12" />
  <sodipodi:namedview
     id="namedview10"
     pagecolor="#ffffff"
     bordercolor="#666666"
     borderopacity="1.0"
     inkscape:pageshadow="2"
     inkscape:pageopacity="0.0"
     inkscape:pagecheckerboard="0"
     inkscape:document-units="pt" />
  <metadata
     id="metadata2">
Created by potrace 1.16, written by Peter Selinger 2001-2019
</metadata>
  <g
     transform="matrix(0.1,0,0,-0.1,-34,299.75131)"
     fill="#000000"
     stroke="none"
     id="g6">
    <path
       d="m 870,2987 c 0,-8 -9,-19 -20,-22 -22,-7 -27,-40 -7,-49 9,-3 8,-8 -4,-18 -9,-7 -14,-18 -12,-25 5,-14 -17,-29 -26,-16 -9,14 -44,25 -35,11 5,-8 1,-9 -12,-4 -10,4 -15,4 -11,0 4,-4 -17,-23 -46,-42 -65,-43 -82,-59 -40,-38 17,9 35,20 38,26 3,5 16,10 27,10 20,0 21,-1 3,-20 -10,-11 -23,-20 -29,-20 -16,0 -73,-49 -58,-50 7,0 10,-5 7,-10 -4,-6 -14,-8 -24,-5 -11,3 -30,-8 -53,-32 -53,-55 -148,-202 -141,-219 8,-20 38,-17 54,6 15,21 89,56 89,41 0,-5 -13,-14 -30,-21 -43,-18 -54,-34 -38,-60 11,-18 10,-23 -7,-36 -18,-13 -20,-13 -23,0 -2,9 -12,16 -22,16 -10,0 -20,8 -23,18 -3,12 -6,8 -11,-13 -4,-16 -11,-38 -17,-47 -14,-28 -11,-45 11,-51 19,-5 19,-6 -5,-53 -28,-56 -32,-94 -10,-94 21,0 19,-16 -4,-39 -16,-16 -18,-26 -11,-50 5,-18 5,-44 0,-61 -5,-16 -5,-30 0,-30 13,0 22,-31 25,-88 2,-29 9,-59 15,-67 6,-8 9,-23 5,-34 -3,-10 -1,-22 4,-25 6,-4 6,-18 0,-39 -11,-38 -11,-37 -1,-36 24,4 30,-4 29,-41 -1,-22 -5,-40 -9,-40 -5,0 -8,-12 -7,-27 l 1,-28 7,25 7,25 8,-22 c 4,-13 4,-32 1,-43 -4,-13 -1,-22 7,-25 18,-7 13,-141 -8,-225 -3,-14 -6,-35 -5,-47 0,-13 -8,-27 -19,-33 -11,-6 -20,-19 -20,-29 0,-11 -7,-21 -14,-24 -21,-8 -49,-64 -36,-72 6,-3 10,-1 10,4 0,6 5,11 10,11 6,0 8,-11 4,-25 -8,-32 17,-34 46,-5 19,19 22,19 37,5 9,-10 29,-15 48,-13 37,3 69,-18 61,-39 -3,-8 -2,-11 4,-8 14,9 38,-46 38,-88 0,-31 -6,-42 -36,-67 -21,-17 -43,-28 -52,-25 -8,4 -11,3 -8,-1 8,-7 -92,-90 -104,-87 -4,2 -5,-3 -2,-10 2,-7 -5,-22 -16,-34 -12,-14 -17,-28 -13,-39 4,-12 3,-15 -5,-10 -8,5 -12,-5 -12,-33 0,-23 4,-41 9,-41 9,0 41,-77 41,-101 0,-9 -20,-29 -45,-45 -36,-22 -45,-34 -45,-56 0,-15 4,-28 9,-28 5,0 14,-12 20,-28 19,-46 72,-94 138,-123 34,-16 71,-29 81,-29 10,0 44,-7 75,-15 84,-22 207,-30 422,-29 214,1 355,19 474,60 118,41 125,46 201,141 23,28 10,67 -35,110 -42,39 -44,44 -33,65 7,12 20,29 28,36 8,7 9,11 3,7 -7,-3 -13,-1 -13,4 0,6 5,11 10,11 6,0 10,23 10,50 0,28 -4,50 -9,50 -5,0 -11,10 -15,23 -8,33 -77,109 -139,153 -29,21 -54,39 -56,41 -2,1 -5,21 -7,44 -4,48 12,82 71,150 64,73 71,83 67,103 -3,11 0,16 7,12 7,-5 11,4 11,24 0,18 -4,29 -10,25 -6,-3 -10,4 -10,16 0,12 -21,64 -46,115 -49,101 -80,134 -334,366 -126,115 -181,180 -207,246 -14,37 -14,45 -2,53 12,7 12,9 0,9 -11,0 -10,5 4,20 10,12 25,18 32,15 9,-3 11,0 7,6 -4,8 1,9 16,4 13,-4 20,-3 17,2 -4,6 13,10 38,10 25,0 45,-4 45,-9 0,-5 10,-6 21,-3 16,5 19,4 14,-6 -6,-9 -2,-11 14,-6 18,4 40,-11 115,-81 119,-112 132,-122 158,-122 12,0 19,3 15,6 -12,13 65,56 90,50 13,-4 33,0 48,10 13,8 27,15 30,14 4,-1 10,2 13,6 4,4 1,4 -5,0 -7,-4 -13,-5 -13,-2 0,11 45,101 53,104 10,5 9,72 -2,72 -5,0 -13,9 -16,21 -4,11 -70,86 -146,167 -221,231 -237,265 -213,455 5,38 3,46 -8,42 -8,-3 -23,3 -33,15 -16,18 -16,20 -2,20 10,0 14,5 11,15 -4,10 -15,12 -35,8 -16,-3 -35,-1 -41,4 -17,13 -69,23 -62,12 3,-5 -5,-9 -18,-9 -19,0 -20,2 -8,11 11,8 2,9 -33,4 -38,-5 -53,-3 -68,11 -15,13 -31,16 -83,12 -50,-4 -66,-2 -70,8 -3,8 -11,13 -17,12 -7,-2 -18,7 -24,20 -17,31 -25,38 -25,19 z m 57,-105 c 13,-15 23,-31 23,-37 0,-5 18,-32 40,-60 28,-35 40,-60 40,-83 0,-18 4,-42 10,-52 13,-24 -6,-39 -55,-45 -31,-4 -36,-3 -31,11 4,9 1,23 -5,30 -8,10 -8,14 -1,14 6,0 15,-7 20,-16 13,-23 32,-9 32,23 0,28 -25,63 -45,63 -15,0 -27,-67 -16,-89 9,-18 4,-41 -10,-41 -5,0 -9,12 -9,26 0,14 -5,35 -12,47 -6,12 -13,40 -15,62 -3,22 -11,68 -19,103 -8,35 -14,68 -14,73 0,18 44,-2 67,-29 z M 815,2582 c 19,-19 37,-27 52,-24 22,4 24,-4 14,-81 -1,-5 -11,-5 -23,-2 -20,6 -19,4 5,-13 23,-16 26,-21 13,-31 -8,-6 -20,-32 -27,-56 -14,-46 -23,-55 -32,-32 -3,6 -6,2 -6,-9 -1,-23 -25,-38 -44,-28 -7,3 -3,-2 7,-10 11,-9 15,-16 8,-16 -6,0 -14,-11 -18,-25 -3,-13 -9,-24 -13,-23 -18,2 -21,-4 -11,-22 8,-14 7,-25 -2,-40 -9,-14 -10,-22 -1,-31 14,-14 5,-49 -11,-43 -9,3 -12,-11 -12,-50 0,-36 4,-57 13,-60 8,-4 13,-23 13,-55 0,-30 5,-51 13,-54 6,-2 9,-8 5,-11 -3,-4 -16,2 -27,13 -22,22 -41,27 -41,11 0,-5 6,-10 13,-10 7,0 21,-9 31,-21 11,-13 25,-19 37,-16 15,4 17,2 11,-6 -5,-7 -7,-26 -5,-44 4,-24 9,-30 22,-25 13,4 14,3 5,-9 -6,-8 -13,-23 -16,-35 -5,-20 -5,-20 31,-2 35,18 36,18 44,-4 5,-15 3,-24 -7,-30 -11,-6 -12,-14 -3,-37 10,-27 12,-28 23,-13 11,15 14,14 24,-12 6,-16 24,-42 40,-58 17,-15 30,-36 30,-45 0,-13 3,-14 11,-6 9,9 9,20 -1,43 -7,17 -10,33 -6,37 12,13 19,-8 21,-64 3,-67 13,-113 26,-113 16,0 28,-44 16,-58 -7,-9 -5,-18 7,-30 9,-10 16,-23 16,-29 0,-15 22,-21 45,-13 19,7 19,7 -3,21 -12,8 -22,19 -22,26 0,7 -4,13 -10,13 -5,0 -10,9 -10,20 0,17 5,15 35,-16 19,-19 40,-32 46,-29 6,4 13,-2 16,-14 3,-12 10,-21 15,-21 12,0 -1,42 -16,52 -6,4 -17,8 -23,8 -7,0 -13,6 -13,14 0,8 -5,16 -11,18 -7,2 -5,9 5,17 14,11 16,11 16,-3 0,-24 24,-19 36,8 9,20 9,26 -3,30 -8,3 -13,14 -12,23 3,35 -1,50 -22,71 -11,13 -19,30 -17,39 2,12 13,7 48,-23 121,-106 176,-165 223,-241 27,-46 54,-83 59,-83 15,0 48,40 47,58 0,10 -3,12 -6,5 -11,-28 -33,-11 -44,33 -7,25 -18,48 -25,51 -16,6 -19,33 -4,33 6,0 10,-4 10,-10 0,-5 7,-10 15,-10 21,0 19,6 -15,57 -17,25 -29,50 -28,55 4,12 78,-82 100,-127 42,-85 48,-102 42,-119 -4,-10 -2,-21 4,-25 18,-11 -29,-71 -55,-71 -14,0 -23,-6 -23,-15 0,-11 -11,-15 -41,-15 -23,0 -47,-7 -56,-16 -12,-12 -18,-12 -23,-3 -6,8 -12,5 -20,-11 -11,-20 -14,-21 -22,-7 -7,13 -20,16 -60,12 -29,-2 -58,1 -65,7 -9,7 -13,7 -13,-1 0,-6 -9,-11 -20,-11 -13,0 -18,-5 -14,-15 4,-8 1,-15 -5,-15 -6,0 -11,4 -11,9 0,5 -3,17 -7,27 -4,12 -3,15 5,10 7,-4 12,-3 12,2 0,10 -33,22 -64,22 -12,0 -16,-5 -13,-15 4,-8 2,-17 -4,-21 -6,-4 -6,-11 2,-20 25,-31 -3,-26 -36,6 -19,19 -36,31 -36,27 -1,-4 -3,-11 -4,-17 -1,-5 -3,-14 -4,-19 -3,-20 -144,-28 -191,-12 -14,5 -33,12 -43,15 -12,4 -15,10 -10,18 8,13 11,26 17,63 1,11 7,29 13,40 6,11 8,26 6,32 -3,7 4,24 15,38 14,18 19,37 17,75 -2,37 1,50 11,50 8,0 14,5 14,10 0,6 -4,10 -9,10 -5,0 -11,15 -15,33 -5,23 -9,28 -15,18 -11,-18 -17,-6 -25,52 -6,36 -11,47 -22,43 -17,-6 -36,27 -28,48 3,9 1,16 -5,16 -6,0 -11,5 -11,10 0,6 7,10 15,10 23,0 18,15 -10,30 -26,14 -51,79 -41,106 3,8 0,13 -7,11 -6,-1 -13,9 -15,23 -2,20 -1,22 7,10 9,-13 11,-13 11,3 0,9 -6,17 -12,17 -7,0 -5,5 5,11 9,6 15,15 12,20 -4,5 -11,6 -17,3 -16,-10 -28,17 -17,38 5,10 6,18 1,18 -9,0 -32,58 -32,83 0,10 -6,27 -12,38 -10,17 -10,23 0,26 6,3 12,19 11,36 -1,30 -1,30 -8,7 -13,-47 -19,-5 -11,75 12,113 46,241 70,265 3,3 13,22 22,43 10,21 33,47 52,58 19,11 37,26 40,34 9,23 38,18 71,-13 z m 345,-45 c 0,-8 10,-23 23,-35 13,-12 29,-38 37,-57 9,-24 20,-35 34,-35 12,0 28,-4 36,-10 9,-6 19,-5 29,3 12,10 12,9 0,-10 -9,-15 -20,-21 -31,-17 -12,3 -18,0 -18,-10 0,-8 -9,-17 -19,-21 -13,-4 -18,-12 -14,-22 4,-9 -1,-19 -11,-25 -9,-5 -14,-13 -11,-18 3,-5 1,-11 -5,-15 -6,-4 -7,-11 -4,-17 4,-6 0,-14 -7,-19 -11,-7 -9,-9 6,-7 39,3 55,-2 55,-17 0,-25 -49,-39 -70,-20 -9,8 -24,15 -33,15 -8,0 -29,12 -46,26 -17,14 -35,23 -40,20 -13,-9 -35,114 -22,127 6,6 11,18 11,27 0,8 7,28 15,44 9,16 13,31 11,33 -5,6 56,73 66,73 5,0 8,-6 8,-13 z m 260,-114 c 1,-53 35,-108 89,-143 28,-18 51,-36 51,-40 0,-4 17,-15 38,-26 64,-32 72,-43 72,-92 0,-33 6,-52 22,-69 20,-21 20,-23 3,-23 -22,0 -105,41 -105,51 0,5 8,13 18,19 14,9 14,11 1,7 -11,-4 -21,4 -28,20 -20,44 -64,83 -93,83 -22,0 -28,5 -28,23 0,12 -16,40 -35,61 -19,22 -35,49 -35,60 0,10 -7,27 -15,36 -24,27 -8,52 38,59 4,0 7,-11 7,-26 z M 844,2118 c 5,-24 9,-29 15,-19 7,11 11,10 20,-5 11,-17 12,-16 7,6 -6,30 7,55 24,45 8,-5 10,-30 5,-89 -13,-151 15,-237 123,-381 33,-44 58,-82 55,-85 -2,-2 -8,1 -12,8 -4,7 -13,12 -18,10 -6,-2 -12,2 -13,7 0,6 -12,16 -26,23 -13,7 -24,17 -24,22 0,6 -9,10 -19,10 -14,0 -23,11 -31,38 -7,20 -19,42 -27,49 -9,7 -17,24 -19,38 -1,15 -10,35 -19,45 -12,13 -13,19 -4,22 8,3 9,9 5,17 -6,10 -10,10 -16,2 -4,-7 -6,10 -6,36 1,26 5,54 10,62 5,8 4,16 -5,22 -12,8 -12,11 1,19 10,6 11,10 3,10 -7,0 -13,10 -13,22 0,12 -6,29 -14,37 -16,19 -31,75 -18,67 5,-3 12,-20 16,-38 z M 759,613 c 6,6 33,4 78,-6 37,-9 84,-19 103,-23 39,-7 102,-33 111,-47 3,-5 12,-3 20,5 8,7 21,14 29,16 8,2 35,8 60,13 25,6 65,15 90,20 25,6 83,12 130,12 47,1 88,6 92,12 4,5 10,2 14,-8 3,-9 17,-17 30,-17 24,0 34,-23 15,-35 -5,-3 -12,-19 -16,-35 -7,-33 -58,-75 -80,-66 -8,3 -17,1 -20,-4 -4,-6 -14,-10 -24,-10 -10,0 -25,-7 -32,-16 -12,-14 -14,-14 -20,3 -7,17 -8,17 -8,-1 -1,-16 -3,-16 -17,-5 -13,10 -17,10 -24,0 -5,-9 -9,-10 -14,-2 -4,6 -12,9 -17,6 -5,-4 -9,5 -9,19 0,30 -16,33 -49,10 -19,-14 -25,-14 -31,-3 -7,11 -12,10 -28,-4 -20,-19 -48,-22 -57,-8 -3,6 1,14 10,18 13,8 12,11 -5,26 -17,14 -20,14 -20,2 0,-8 -7,-15 -16,-15 -10,0 -14,-6 -10,-15 3,-8 1,-15 -4,-15 -6,0 -10,5 -10,10 0,15 -36,12 -50,-5 -17,-20 -30,-19 -31,3 -1,16 -2,16 -6,0 -5,-19 -15,-23 -26,-11 -4,3 -24,8 -45,10 -26,2 -33,1 -22,-6 24,-16 -16,-26 -46,-12 -14,6 -30,9 -35,5 -18,-10 -58,5 -85,34 -15,15 -23,21 -20,15 15,-27 -21,-11 -57,26 -35,34 -37,40 -26,63 13,30 73,47 131,37 20,-3 41,-2 47,4 z m 16,-372 c 83,-12 170,-24 195,-27 25,-4 39,-9 33,-11 -26,-9 -12,-18 27,-18 29,0 40,4 40,14 0,12 3,12 12,3 16,-16 46,-15 63,2 9,8 48,17 97,20 46,4 134,14 197,22 62,8 115,13 117,11 30,-29 -226,-106 -260,-78 -10,8 -16,7 -26,-4 -9,-11 -33,-15 -89,-14 -42,0 -83,-1 -91,-3 -16,-3 -226,10 -297,18 -23,3 -75,12 -115,20 -40,8 -80,15 -89,15 -8,0 -20,14 -27,31 l -11,31 37,-6 c 20,-3 105,-15 187,-26 z"
       id="path4" />
  </g>
</svg>
