<?xml version="1.0" encoding="UTF-8" standalone="no"?>
<svg
   version="1.0"
   width="140.63316pt"
   height="238.91281pt"
   viewBox="0 0 140.63316 238.91281"
   preserveAspectRatio="xMidYMid meet"
   id="svg20"
   sodipodi:docname="dd7fe4ec7f33d938985dd603127e07cd.svg"
   xmlns:inkscape="http://www.inkscape.org/namespaces/inkscape"
   xmlns:sodipodi="http://sodipodi.sourceforge.net/DTD/sodipodi-0.dtd"
   xmlns="http://www.w3.org/2000/svg"
   xmlns:svg="http://www.w3.org/2000/svg">
  <defs
     id="defs24" />
  <sodipodi:namedview
     id="namedview22"
     pagecolor="#ffffff"
     bordercolor="#666666"
     borderopacity="1.0"
     inkscape:pageshadow="2"
     inkscape:pageopacity="0.0"
     inkscape:pagecheckerboard="0"
     inkscape:document-units="pt" />
  <metadata
     id="metadata2">
Created by potrace 1.16, written by Peter Selinger 2001-2019
</metadata>
  <g
     transform="matrix(0.1,0,0,-0.1,-17.762935,271)"
     fill="#000000"
     stroke="none"
     id="g18">
    <path
       d="m 1111,2658 c 24,-29 49,-56 56,-61 6,-4 14,-20 18,-36 5,-22 10,-28 26,-24 10,3 19,0 19,-6 0,-6 12,-16 26,-21 19,-8 24,-15 19,-28 -15,-34 -17,-62 -6,-62 6,0 11,6 11,14 0,24 20,29 41,10 26,-24 25,-47 -2,-39 -17,6 -20,3 -17,-16 2,-19 11,-25 40,-30 20,-3 45,-12 54,-20 16,-13 17,-12 11,11 -6,24 -5,24 19,-5 15,-18 23,-38 20,-50 -7,-25 30,-65 60,-65 21,0 53,-33 67,-70 4,-13 6,-12 6,1 2,35 -83,139 -223,277 -80,78 -150,142 -156,142 -5,0 -10,4 -10,9 0,13 -100,121 -112,121 -5,0 10,-24 33,-52 z"
       id="path4" />
    <path
       d="m 726,2569 c -14,-11 -26,-26 -26,-33 0,-13 -15,-47 -51,-119 -10,-22 -19,-44 -19,-49 0,-6 -14,-34 -31,-61 -17,-28 -38,-73 -46,-100 -16,-56 -20,-201 -6,-219 6,-7 16,-31 23,-53 20,-61 70,-165 81,-165 5,0 9,-7 9,-15 0,-8 12,-22 28,-32 35,-23 51,-43 52,-66 0,-11 16,-35 36,-55 33,-33 57,-75 82,-147 17,-46 27,-251 13,-259 -6,-4 -11,-16 -11,-27 0,-22 27,-25 54,-6 16,12 17,16 5,38 -8,13 -18,27 -23,30 -4,4 -2,11 5,15 41,26 50,57 55,174 4,99 -24,161 -104,228 -31,26 -74,64 -96,85 -21,20 -43,37 -48,37 -4,0 -8,7 -8,16 0,9 -8,28 -18,42 -29,44 -45,103 -48,176 -2,47 -9,74 -20,87 -9,10 -14,25 -11,34 4,8 2,15 -2,15 -5,0 -8,11 -7,25 0,14 4,25 7,25 3,0 5,11 4,25 -2,14 1,27 6,31 5,3 9,14 9,25 0,12 5,17 10,14 6,-4 36,19 67,50 47,48 56,63 59,98 6,76 12,122 19,140 10,24 -16,22 -49,-4 z"
       id="path6" />
    <path
       d="m 846,2042 c -15,-45 65,-152 280,-379 79,-83 144,-155 144,-160 1,-13 34,-48 53,-56 18,-7 97,-158 97,-186 0,-11 -4,-10 -20,4 -20,18 -20,17 -20,-8 0,-14 -7,-32 -15,-40 -8,-8 -11,-17 -8,-21 10,-9 -29,-47 -44,-42 -7,3 -15,1 -18,-4 -4,-6 -1,-10 4,-10 21,0 11,-19 -19,-36 -27,-17 -28,-19 -14,-35 15,-17 13,-20 -30,-50 -32,-23 -46,-40 -46,-56 0,-13 4,-23 9,-23 8,0 20,-27 25,-55 1,-5 7,-9 14,-8 21,5 13,-5 -22,-26 -36,-23 -38,-43 -9,-86 7,-11 13,-26 13,-35 0,-29 38,-51 75,-44 26,5 37,2 51,-14 13,-15 25,-19 46,-15 23,4 28,2 28,-14 0,-10 -6,-25 -12,-32 -11,-11 -8,-12 13,-7 37,8 42,-2 17,-36 -28,-40 -12,-56 32,-33 75,39 81,197 8,236 -42,23 -110,94 -135,142 -13,27 -33,52 -44,54 -26,7 -24,35 6,63 14,13 24,31 23,39 -2,8 16,33 39,54 24,22 40,43 38,47 -3,5 -1,11 5,15 6,4 8,10 5,15 -3,5 4,14 16,21 19,10 21,17 16,70 -9,104 -49,171 -178,296 -63,61 -137,132 -164,159 -118,115 -208,219 -230,266 -19,41 -24,46 -29,30 z"
       id="path8" />
    <path
       d="m 517,1290 c -3,-8 -8,-28 -12,-45 -12,-56 -47,-125 -63,-125 -14,0 -14,-1 0,-12 17,-14 32,-48 21,-48 -4,0 -17,12 -30,28 -13,16 -22,21 -23,13 0,-8 20,-33 45,-55 42,-39 59,-76 34,-76 -21,0 -196,-160 -256,-234 -26,-32 -30,-81 -8,-90 8,-3 15,-14 15,-25 0,-23 56,-91 75,-91 7,0 15,6 18,14 3,8 16,16 29,19 21,4 21,4 2,6 -30,2 -71,48 -56,63 9,9 18,9 37,0 24,-11 36,0 15,13 -21,13 -7,21 75,44 66,18 91,30 110,53 29,35 30,46 9,96 l -16,37 -12,-34 c -8,-23 -15,-31 -20,-22 -6,9 -11,9 -22,0 -9,-7 2,16 23,52 21,35 44,69 51,74 19,15 3,50 -37,77 -41,27 -51,48 -23,48 18,0 19,3 9,35 -8,29 -7,50 7,105 10,38 16,75 13,82 -4,10 -6,10 -10,-2 z"
       id="path10" />
    <path
       d="m 820,821 c -30,-10 -62,-20 -70,-24 -8,-3 -27,-11 -42,-16 -16,-6 -28,-15 -28,-21 0,-14 -16,-12 -33,4 -12,13 -16,10 -31,-21 -20,-43 -14,-55 9,-19 13,20 21,24 31,15 7,-6 11,-16 8,-23 -9,-23 24,-50 92,-76 54,-20 70,-31 72,-48 2,-12 7,-22 12,-22 10,0 -7,-58 -24,-79 -9,-12 -7,-13 9,-7 11,5 42,11 68,14 46,4 49,6 44,31 -10,53 21,82 122,117 51,18 95,35 99,38 3,3 -3,23 -14,43 -16,30 -31,42 -79,60 -33,13 -77,26 -98,30 -20,3 -40,10 -43,14 -7,13 -40,9 -104,-10 z"
       id="path12" />
    <path
       d="m 1439,500 c -70,-36 -90,-58 -66,-72 13,-7 15,-13 7,-28 -6,-11 -10,-23 -9,-27 4,-22 -3,-34 -23,-43 -21,-8 -20,-9 9,-9 17,-1 44,4 60,10 15,6 48,13 73,14 36,3 51,10 74,36 33,37 24,47 -19,25 -20,-11 -34,-12 -47,-5 -22,12 -23,29 -3,76 9,20 12,40 8,44 -5,4 -33,-5 -64,-21 z"
       id="path14" />
    <path
       d="m 274,496 c -3,-13 -1,-34 6,-45 9,-17 8,-25 -4,-36 -19,-20 -23,-19 -58,10 -39,33 -52,23 -29,-24 21,-39 69,-70 81,-51 4,7 18,6 46,-3 21,-8 59,-17 84,-20 l 45,-6 -32,16 c -36,18 -41,30 -18,40 14,5 14,8 -2,25 -14,16 -15,21 -4,28 23,14 5,38 -48,65 -28,14 -53,25 -55,25 -3,0 -8,-11 -12,-24 z"
       id="path16" />
  </g>
</svg>
